# xmcd CD database file
#
# Track frame offsets:
#	150
#	4767
#	26147
#	54130
#	67589
#	79171
#	94389
#	111236
#	114889
#	119637
#	124264
#	128767
#	133359
#	147238
#	164515
#	181908
#	188560
#	196666
#
# Disc length: 2726 seconds
#
# Revision: 0
# Processed by: cddbd v1.5.1PL0 Copyright (c) Steve Scherf et al.
# Submitted via: CDex 1.51
#
DISCID=f60aa412
DTITLE=Klaus Treuheit - Sprengwerk
DYEAR=1999
DGENRE=Jazz
TTITLE0=Mafalda tanzt
TTITLE1=Crazeology
TTITLE2=Grapevine
TTITLE3=Bley-Frey
TTITLE4=O Lobo
TTITLE5=Summertime
TTITLE6=Marcabru
TTITLE7=Fünf Minuten 1
TTITLE8=Fünf Minuten 2
TTITLE9=Fünf Minuten 3
TTITLE10=Fünf Minuten 4
TTITLE11=Fünf Minuten 5
TTITLE12=Berg-Einsamkeit
TTITLE13=Interplay
TTITLE14=Interchange
TTITLE15=Interview a
TTITLE16=Interview b
TTITLE17=Interview c
EXTD=YEAR: 1999
EXTT0=
EXTT1=
EXTT2=
EXTT3=
EXTT4=
EXTT5=
EXTT6=
EXTT7=
EXTT8=
EXTT9=
EXTT10=
EXTT11=
EXTT12=
EXTT13=
EXTT14=
EXTT15=
EXTT16=
EXTT17=
PLAYORDER=
